<svg width="58" height="58" viewBox="0 0 58 58" fill="none" xmlns="http://www.w3.org/2000/svg">
<circle cx="29" cy="29" r="29" fill="white"/>
<g clip-path="url(#clip0_257_369)">
<path d="M18.8092 48.7206C18.8092 48.7206 5.38767 41.449 11.3783 25.5704C11.3783 25.5704 15.2456 14.9596 29.5014 14.4405C29.5014 14.4405 42.6191 14.3665 46.8658 26.9798C46.8658 26.9798 45.549 18.1481 36.9671 13.5047C32.8542 11.279 28.048 10.6504 23.4395 11.5506C19.7437 12.2717 15.0538 13.9555 11.8346 17.8537C11.8346 17.8537 3.94887 25.8677 8.04291 37.1455C8.04145 37.1441 10.0892 44.9362 18.8092 48.7206Z" fill="#FAD704"/>
<path d="M10.6094 35.4045C10.6094 35.4045 14.545 50.0074 32.0489 48.3947C32.0489 48.3947 43.7105 47.4461 47.8321 34.0492C47.8321 34.0492 51.2169 21.618 39.5859 14.3535C39.5859 14.3535 47.9266 17.7781 50.5586 26.843C51.8855 31.4153 51.3375 36.3033 49.1997 40.5699C47.5385 43.8864 44.6609 47.8912 39.9362 49.942C39.9362 49.942 29.8747 55.3718 19.5503 48.5923C19.5503 48.5923 12.2197 44.6515 10.6094 35.4045Z" fill="#2A2772"/>
<path d="M15.2837 33.843H18.3546L18.4999 29.8695H22.1652V27.9154H18.2979L18.327 26.3297H22.7902V24.2988L15.2837 24.4098V33.843Z" fill="#2A2772"/>
<path d="M29.2876 24.2988H24.2969V33.843L29.3952 33.6951C31.3702 33.6382 33.0866 32.0554 33.0866 30.1212V27.8742C33.0866 25.8988 31.3048 24.2988 29.2876 24.2988ZM30.1829 29.5978C30.1829 30.6318 29.6001 31.4794 28.9286 31.5092L27.1963 31.5889V26.4833H28.8909C29.5768 26.4833 30.1814 27.3394 30.1814 28.3961V29.5978H30.1829Z" fill="#2A2772"/>
<path d="M40.1065 24.3516H36.6665L33.0869 33.8431H36.2406L36.6955 32.1735H40.0789L40.5629 33.8431H43.8329L40.1065 24.3516ZM37.2347 30.228L38.3727 27.0779L39.5106 30.2806L37.2347 30.228Z" fill="#2A2772"/>
<path d="M34.2046 36.3461V36.0204H35.0649V36.7912C34.9806 36.8708 34.86 36.9405 34.7016 37.0003C34.5432 37.06 34.3819 37.0913 34.2191 37.0913C34.0127 37.0913 33.8325 37.0486 33.6785 36.9633C33.5244 36.878 33.4096 36.7571 33.3311 36.5992C33.2541 36.4414 33.2148 36.2693 33.2148 36.083C33.2148 35.881 33.2584 35.7018 33.3442 35.5454C33.4299 35.3889 33.5564 35.2681 33.7235 35.1856C33.8499 35.1216 34.0084 35.0889 34.1973 35.0889C34.4429 35.0889 34.6347 35.1386 34.7728 35.2396C34.9109 35.3406 34.9995 35.48 35.0388 35.6577L34.642 35.7303C34.6144 35.635 34.5621 35.5596 34.4851 35.5056C34.408 35.4501 34.3121 35.4231 34.1973 35.4231C34.0229 35.4231 33.8834 35.4771 33.7816 35.5852C33.6785 35.6933 33.6276 35.854 33.6276 36.0673C33.6276 36.2977 33.6799 36.4698 33.7845 36.5836C33.8892 36.6988 34.0258 36.7557 34.1944 36.7557C34.2787 36.7557 34.3615 36.74 34.4458 36.7073C34.5301 36.6746 34.6028 36.6362 34.6624 36.5907V36.3446H34.2046V36.3461Z" fill="black"/>
<path d="M35.7119 37.0586V35.123H36.1116V35.8853H36.8949V35.123H37.2946V37.0586H36.8949V36.2124H36.1116V37.0586H35.7119Z" fill="black"/>
<path d="M39.7665 37.0586H39.332L39.159 36.6192H38.3684L38.2056 37.0586H37.7812L38.5515 35.123H38.9744L39.7665 37.0586ZM39.0311 36.2921L38.7579 35.5739L38.4905 36.2921H39.0311Z" fill="black"/>
<path d="M40.2593 37.0586V35.123H40.6473L41.4568 36.4158V35.123H41.8274V37.0586H41.4263L40.6284 35.7957V37.0586H40.2593Z" fill="black"/>
<path d="M44.3109 37.0586H43.8764L43.7034 36.6192H42.9128L42.7501 37.0586H42.3257L43.0959 35.123H43.5189L44.3109 37.0586ZM43.5755 36.2921L43.3023 35.5739L43.0349 36.2921H43.5755Z" fill="black"/>
<path d="M2 29.9179L2.2398 27.5728L2.91415 27.6382L2.77172 29.0305L3.31963 29.0845L3.44025 27.8956L4.0739 27.9582L3.95328 29.1471L5.23512 29.2723L5.13774 30.2251L2 29.9179Z" fill="black"/>
<path d="M3.87063 27.2243C3.37068 27.1077 3.01317 26.8802 2.80098 26.5417C2.58879 26.2032 2.54229 25.7908 2.66146 25.3044C2.78354 24.8052 3.01462 24.4525 3.35324 24.2463C3.69332 24.0401 4.11043 23.9946 4.60311 24.1098C4.96208 24.1937 5.24112 24.3217 5.44168 24.4923C5.64224 24.6644 5.77886 24.8763 5.85298 25.1295C5.92564 25.3826 5.92274 25.6756 5.84135 26.0084C5.75851 26.3469 5.63498 26.6142 5.47075 26.8105C5.30652 27.0068 5.08852 27.1461 4.81675 27.2272C4.54352 27.3083 4.2296 27.3083 3.87063 27.2243ZM4.10171 26.2985C4.41127 26.371 4.64671 26.3668 4.80948 26.2857C4.97226 26.2046 5.0769 26.0667 5.12486 25.8733C5.17282 25.6742 5.1452 25.5049 5.03911 25.3641C4.93302 25.2248 4.7092 25.1138 4.36622 25.0342C4.077 24.9674 3.85319 24.9745 3.69187 25.057C3.53055 25.1394 3.42736 25.2788 3.3794 25.4736C3.33435 25.66 3.36487 25.8263 3.47242 25.9714C3.57851 26.1165 3.78924 26.226 4.10171 26.2985Z" fill="black"/>
<path d="M4.79053 23.6208C4.31383 23.4316 3.99555 23.1543 3.83714 22.7902C3.67873 22.4247 3.69617 22.0109 3.88801 21.5458C4.08421 21.0708 4.36761 20.7551 4.73385 20.6015C5.10154 20.4479 5.5201 20.4635 5.99098 20.6498C6.33251 20.7849 6.58975 20.9528 6.76124 21.1519C6.93274 21.351 7.03592 21.5814 7.06935 21.8416C7.10278 22.1019 7.05482 22.392 6.92256 22.7091C6.78886 23.032 6.62608 23.278 6.43424 23.4473C6.2424 23.6165 6.00551 23.7232 5.72357 23.7644C5.44453 23.8028 5.13206 23.7559 4.79053 23.6208ZM5.15967 22.739C5.4547 22.8556 5.68869 22.8855 5.86163 22.83C6.03458 22.7746 6.15956 22.6537 6.23659 22.4688C6.31507 22.2782 6.31216 22.1076 6.22933 21.9526C6.14649 21.799 5.94157 21.6567 5.61457 21.5273C5.33989 21.4178 5.11607 21.3936 4.94458 21.4519C4.77309 21.5103 4.6481 21.6326 4.57107 21.8189C4.49695 21.9966 4.50277 22.1659 4.58706 22.3252C4.67135 22.4816 4.86319 22.621 5.15967 22.739Z" fill="black"/>
<path d="M4.96045 19.3097L5.69002 18.0866C5.8339 17.8463 5.98359 17.6699 6.1391 17.5604C6.29461 17.4509 6.46319 17.3826 6.64631 17.357C6.82943 17.3314 7.01691 17.3442 7.20875 17.3954C7.40059 17.4466 7.58953 17.5249 7.77555 17.6315C8.06622 17.7979 8.27259 17.9586 8.39467 18.1151C8.51675 18.2715 8.59669 18.4379 8.63593 18.6157C8.67517 18.792 8.67371 18.957 8.63157 19.1092C8.57343 19.3182 8.50077 19.496 8.41357 19.6425L7.68399 20.8655L4.96045 19.3097ZM6.06789 18.8389L7.55465 19.6894L7.67527 19.4875C7.77846 19.3154 7.83223 19.1817 7.83659 19.0878C7.84095 18.9925 7.80753 18.8973 7.73486 18.8005C7.66219 18.7038 7.51686 18.5929 7.29886 18.4692C7.0111 18.3042 6.78583 18.2374 6.62451 18.2687C6.46319 18.2999 6.31931 18.4222 6.19142 18.6356L6.06789 18.8389Z" fill="black"/>
<path d="M11.1341 15.211L10.3987 16.0203L10.685 16.4711L10.0237 17.1978L8.45557 14.2824L9.16189 13.5059L12.304 14.6891L11.6267 15.4343L11.1341 15.211ZM10.4917 14.9152L9.41331 14.4331L10.031 15.4215L10.4917 14.9152Z" fill="black"/>
<path d="M10.4395 12.1949L11.1341 11.6218L13.1659 12.1779L12.0425 10.8737L12.7444 10.2949L14.7747 12.6515L14.0728 13.2303L12.0556 12.6799L13.1717 13.9741L12.4712 14.5515L10.4395 12.1949Z" fill="black"/>
<path d="M13.561 9.7231L14.7891 8.97504C15.0318 8.82714 15.2469 8.74038 15.4373 8.71478C15.6277 8.68776 15.8093 8.70625 15.9823 8.76598C16.1567 8.82714 16.3151 8.92384 16.4604 9.05611C16.6058 9.18837 16.7351 9.34481 16.8485 9.524C17.0258 9.80417 17.1319 10.0402 17.1653 10.2351C17.1987 10.4285 17.19 10.6134 17.1406 10.7883C17.0912 10.9632 17.0112 11.1083 16.9008 11.2235C16.7496 11.3814 16.6 11.5051 16.4532 11.5947L15.2251 12.3427L13.561 9.7231ZM14.7658 9.81128L15.6756 11.242L15.8776 11.1183C16.0506 11.013 16.161 10.9192 16.2105 10.8367C16.2599 10.7542 16.2759 10.6546 16.257 10.5352C16.2395 10.4171 16.1625 10.2522 16.0302 10.0431C15.8544 9.76577 15.6873 9.60364 15.5288 9.55813C15.3719 9.51262 15.1859 9.55387 14.9708 9.68471L14.7658 9.81128Z" fill="black"/>
<path d="M18.2568 7.16466L19.6128 6.66975C19.8802 6.57304 20.1098 6.52895 20.3017 6.54033C20.4935 6.55171 20.6679 6.6029 20.8263 6.69677C20.9847 6.79063 21.1214 6.91578 21.2362 7.07507C21.351 7.23293 21.4469 7.4107 21.5225 7.60838C21.6402 7.91699 21.6954 8.17014 21.6882 8.3664C21.6809 8.56266 21.6358 8.74185 21.5515 8.90256C21.4672 9.06469 21.3597 9.19126 21.2274 9.28228C21.0472 9.40743 20.8757 9.49987 20.713 9.5596L19.357 10.0545L18.2568 7.16466ZM19.418 7.48607L20.0197 9.06469L20.2435 8.98362C20.4339 8.91394 20.5618 8.84425 20.6272 8.77314C20.6926 8.70203 20.7275 8.60675 20.7333 8.48728C20.7391 8.36782 20.6984 8.19147 20.6112 7.95966C20.495 7.65389 20.3642 7.4619 20.2188 7.38652C20.0735 7.31115 19.8831 7.31541 19.6462 7.40216L19.418 7.48607Z" fill="black"/>
<path d="M22.4834 8.95669L21.8062 5.94453L23.3917 5.60321C23.6853 5.53921 23.9164 5.51646 24.0821 5.5321C24.2492 5.54774 24.3945 5.61174 24.5195 5.72552C24.6445 5.83929 24.7288 5.99146 24.7724 6.18346C24.8102 6.35127 24.8058 6.50202 24.7608 6.63997C24.7157 6.7765 24.6372 6.89739 24.5268 6.99978C24.457 7.0652 24.3538 7.1292 24.2201 7.19035C24.3422 7.20315 24.4323 7.22164 24.4934 7.24724C24.5341 7.26431 24.5965 7.30697 24.6808 7.37239C24.7651 7.43923 24.8233 7.49186 24.8567 7.53025L25.5136 8.30392L24.4381 8.53573L23.7231 7.72509C23.6315 7.61985 23.5574 7.55443 23.4993 7.53025C23.4208 7.49897 23.338 7.49186 23.2508 7.51034L23.1665 7.52883L23.4412 8.7519L22.4834 8.95669ZM23.0357 6.95996L23.4368 6.87321C23.4804 6.86468 23.5618 6.83197 23.6795 6.77792C23.7391 6.75233 23.7841 6.70966 23.8132 6.64993C23.8423 6.5902 23.8481 6.52762 23.8335 6.4622C23.8117 6.36549 23.7638 6.29723 23.6882 6.25883C23.6141 6.22043 23.4891 6.22043 23.3162 6.25741L22.8976 6.34701L23.0357 6.95996Z" fill="black"/>
<path d="M27.4535 5.07253L28.4214 5L28.5639 6.83176C28.5784 7.0138 28.5624 7.1873 28.5174 7.35228C28.4723 7.51867 28.3924 7.66658 28.2776 7.79599C28.1628 7.92541 28.0407 8.0207 27.9084 8.07901C27.7253 8.16149 27.5015 8.21269 27.237 8.2326C27.0844 8.24398 26.9158 8.2454 26.7341 8.23829C26.551 8.23118 26.397 8.19989 26.2705 8.14727C26.1441 8.09465 26.0264 8.01359 25.9159 7.90692C25.8069 7.80026 25.7284 7.68649 25.6819 7.56845C25.6063 7.37787 25.5627 7.20579 25.5511 7.05504L25.4087 5.22328L26.3781 5.15075L26.5248 7.0266C26.5379 7.19441 26.5961 7.32241 26.6978 7.40916C26.7995 7.49592 26.9361 7.53431 27.1047 7.52151C27.2719 7.50871 27.3998 7.45325 27.487 7.35228C27.5742 7.25272 27.6119 7.11619 27.5989 6.94696L27.4535 5.07253Z" fill="black"/>
<path d="M30.8615 7.06923L30.908 6.42925L32.4093 6.53449L32.3134 7.84574C32.0125 8.01782 31.748 8.13017 31.5228 8.18422C31.2975 8.23826 31.033 8.2539 30.7292 8.23399C30.3557 8.20839 30.0563 8.12448 29.8311 7.98369C29.6044 7.84289 29.4358 7.64521 29.3253 7.38922C29.2134 7.13465 29.1698 6.84737 29.1931 6.52738C29.2178 6.19175 29.3093 5.90447 29.4692 5.66555C29.6291 5.42662 29.85 5.25311 30.1319 5.14361C30.3528 5.0597 30.642 5.02983 31.0025 5.05401C31.3498 5.07819 31.6071 5.12654 31.7756 5.20049C31.9428 5.27445 32.0794 5.37969 32.184 5.51622C32.2887 5.65417 32.3613 5.82341 32.4049 6.02678L31.4559 6.12491C31.4254 6.00544 31.3673 5.913 31.2786 5.84474C31.1914 5.77647 31.0751 5.73808 30.9327 5.72812C30.7191 5.71248 30.5447 5.77363 30.4081 5.91016C30.2714 6.04669 30.1915 6.27139 30.1683 6.58427C30.1436 6.91706 30.1901 7.15883 30.3078 7.311C30.4255 7.46317 30.5984 7.54566 30.8266 7.56273C30.9356 7.56984 31.0403 7.56273 31.1405 7.53855C31.2408 7.51437 31.3585 7.47028 31.4908 7.40486L31.5126 7.11474L30.8615 7.06923Z" fill="black"/>
<path d="M32.8049 7.34214L33.7234 7.47583C33.7118 7.62373 33.7278 7.74177 33.7714 7.82995C33.8426 7.97217 33.969 8.06319 34.1521 8.10158C34.2887 8.13003 34.3992 8.12007 34.4864 8.07314C34.5736 8.02621 34.6259 7.96079 34.6448 7.87973C34.6622 7.80151 34.6419 7.72471 34.5852 7.64791C34.5285 7.57111 34.3788 7.47867 34.1361 7.37059C33.7379 7.19139 33.4676 7.00651 33.3223 6.81736C33.1755 6.62821 33.129 6.41489 33.1798 6.17881C33.2133 6.02379 33.2918 5.88726 33.4138 5.7678C33.5359 5.64976 33.6972 5.57012 33.8992 5.52887C34.1013 5.48905 34.3614 5.50185 34.6826 5.56869C35.0764 5.65118 35.3613 5.78629 35.5372 5.97259C35.713 6.1589 35.7857 6.41346 35.7566 6.73345L34.8483 6.59692C34.8541 6.45613 34.825 6.34662 34.7625 6.26982C34.7 6.19161 34.6012 6.13898 34.466 6.11054C34.3556 6.08779 34.2669 6.09348 34.2001 6.12761C34.1332 6.16174 34.094 6.21152 34.0795 6.27836C34.0693 6.32671 34.0824 6.37507 34.1202 6.422C34.1565 6.47177 34.2553 6.53008 34.4152 6.59977C34.8119 6.7747 35.091 6.92545 35.2508 7.05344C35.4107 7.18144 35.5183 7.31939 35.5706 7.47014C35.6229 7.62089 35.6316 7.77733 35.5953 7.9423C35.5531 8.13572 35.4587 8.30211 35.3148 8.44291C35.1695 8.5837 34.9892 8.67472 34.7756 8.71881C34.5605 8.76147 34.3047 8.75294 34.0053 8.69036C33.4807 8.58086 33.1392 8.40593 32.9807 8.16558C32.8238 7.92666 32.7642 7.65218 32.8049 7.34214Z" fill="black"/>
<path d="M39.0992 9.75012L38.0833 9.32204L37.7374 9.73021L36.8232 9.34622L39.1558 6.97119L40.1325 7.3822L39.9755 10.6731L39.0381 10.2792L39.0992 9.75012ZM39.182 9.05894L39.3099 7.90556L38.5469 8.79157L39.182 9.05894Z" fill="black"/>
<path d="M43.4069 9.11285L44.2382 9.60492L43.2659 11.1764C43.17 11.3329 43.0537 11.4651 42.9186 11.5732C42.7834 11.6827 42.6308 11.7567 42.4608 11.7979C42.2907 11.8392 42.1338 11.8448 41.9914 11.8192C41.7937 11.7823 41.5801 11.6969 41.3533 11.5618C41.2225 11.4836 41.0845 11.3898 40.9406 11.2802C40.7967 11.1707 40.6892 11.0584 40.618 10.9432C40.5467 10.828 40.4988 10.6957 40.4726 10.5464C40.4465 10.3971 40.4508 10.2605 40.4828 10.1368C40.5351 9.93913 40.602 9.77416 40.6819 9.64474L41.6542 8.07324L42.4855 8.56531L41.49 10.1752C41.4013 10.3189 41.3722 10.4554 41.4042 10.5848C41.4362 10.7142 41.5234 10.8209 41.6687 10.9076C41.8126 10.993 41.9492 11.02 42.08 10.9887C42.2108 10.9574 42.3213 10.8678 42.4114 10.7213L43.4069 9.11285Z" fill="black"/>
<path d="M44.8585 10.0347L47.1548 11.8622L46.6636 12.4524L45.8933 11.8394L44.3964 13.6413L43.6406 13.0397L45.139 11.2378L44.3687 10.6249L44.8585 10.0347Z" fill="black"/>
<path d="M47.7263 12.3809L48.3905 13.0777L47.5839 13.813L48.3091 14.5753L49.1157 13.84L49.7828 14.5411L47.4749 16.6431L46.8078 15.942L47.7409 15.0915L47.0157 14.3292L46.0826 15.1797L45.4185 14.4828L47.7263 12.3809Z" fill="black"/>
<path d="M49.0428 16.0872C49.4671 15.8027 49.8784 15.6961 50.2766 15.7686C50.6749 15.8411 51.0193 16.0843 51.3085 16.4968C51.605 16.9206 51.7169 17.3245 51.6457 17.7099C51.5745 18.0953 51.3289 18.4281 50.9103 18.7082C50.6065 18.9116 50.3217 19.0297 50.0572 19.0595C49.7927 19.0894 49.5398 19.0467 49.3 18.9301C49.0587 18.8135 48.8393 18.6144 48.6416 18.3314C48.4411 18.0441 48.3205 17.7753 48.2827 17.525C48.2449 17.2747 48.2856 17.023 48.4062 16.7698C48.5268 16.5195 48.739 16.2905 49.0428 16.0872ZM49.5907 16.8751C49.3276 17.0514 49.1736 17.2249 49.1256 17.3984C49.0776 17.5705 49.1111 17.7397 49.2259 17.9033C49.3436 18.0725 49.4918 18.165 49.6691 18.182C49.8465 18.1991 50.0804 18.1095 50.3711 17.9147C50.6153 17.7511 50.7606 17.5819 50.8057 17.4098C50.8507 17.2377 50.8158 17.0685 50.6996 16.9035C50.5891 16.7456 50.4423 16.656 50.2607 16.6376C50.0775 16.6177 49.8552 16.6973 49.5907 16.8751Z" fill="black"/>
<path d="M49.7959 19.97L52.6255 18.6104L53.3406 20.0354C53.4728 20.2999 53.5513 20.5132 53.5746 20.6753C53.5993 20.8375 53.5687 20.9911 53.4874 21.1376C53.4045 21.284 53.2737 21.3992 53.0935 21.486C52.9365 21.5614 52.7839 21.5941 52.6386 21.5827C52.4918 21.5713 52.3538 21.5258 52.2259 21.4462C52.1445 21.395 52.0558 21.3125 51.9628 21.1987C51.9788 21.3167 51.9817 21.4078 51.9701 21.4718C51.9628 21.5144 51.9352 21.5841 51.8902 21.6794C51.8436 21.7761 51.8059 21.8444 51.7753 21.8842L51.1635 22.692L50.6781 21.7249L51.3132 20.8517C51.396 20.7393 51.4425 20.654 51.4542 20.5914C51.4672 20.509 51.4542 20.4279 51.4149 20.3497L51.3771 20.2743L50.229 20.8261L49.7959 19.97ZM51.909 20.0197L52.0907 20.381C52.1096 20.4194 52.1605 20.489 52.2433 20.5886C52.284 20.6398 52.3363 20.6711 52.4017 20.6853C52.4671 20.6981 52.5311 20.6896 52.5921 20.6597C52.6837 20.6156 52.7389 20.5545 52.7592 20.4734C52.7796 20.3938 52.7505 20.2757 52.672 20.1193L52.4831 19.7438L51.909 20.0197Z" fill="black"/>
<path d="M54.1689 21.8984L54.5047 22.7958L51.5457 23.8582L51.21 22.9608L54.1689 21.8984Z" fill="black"/>
<path d="M54.7663 23.4526L55.5032 26.2586L54.7489 26.4477L54.5018 25.5063L52.2027 26.0837L51.96 25.1607L54.2591 24.5833L54.0121 23.6418L54.7663 23.4526Z" fill="black"/>
<path d="M55.5989 26.688L55.7253 27.739L54.7429 28.4771L55.8736 28.9734L56 30.0187L54.038 29.0374L52.7271 29.1882L52.6123 28.2396L53.9232 28.0888L55.5989 26.688Z" fill="black"/>
</g>
<defs>
<clipPath id="clip0_257_369">
<rect width="54" height="47" fill="white" transform="translate(2 5)"/>
</clipPath>
</defs>
</svg>
